<?xml version="1.0" encoding="utf-8"?>
<!DOCTYPE svg PUBLIC "-//W3C//DTD SVG 1.1//EN" "http://www.w3.org/Graphics/SVG/1.1/DTD/svg11.dtd">
<svg xmlns="http://www.w3.org/2000/svg" xmlns:xlink="http://www.w3.org/1999/xlink"
  version="1.1" xml:space="preserve"
  width="203px" height="33px" x="0px" y="30px" viewBox="0 0 675 110">
  <path fill="#FFFFFF" d="M182.333,87.324c-1.046-1.09-1.875-2.341-1.875-7.432v-54.09c0-5.091,0.828-6.303,1.875-7.366
    c1.833-1.962,3.712-2.108,3.922-2.738c0.278-0.734-0.536-1.072-2.059-0.939c-2.622,0.203-5.772,0.44-10.055,0.44
    c-4.279,0-7.428-0.237-10.051-0.44c-1.517-0.133-2.333,0.205-2.058,0.939c0.211,0.63,2.088,0.776,3.922,2.738
    c1.61,1.657,1.903,4.39,1.903,9.22l-0.005,50.382c0,6.743-0.741,8.031-1.898,9.286c-1.834,1.88-3.711,2.058-3.922,2.703
    c-0.275,0.718,0.541,1.104,2.058,0.91c2.623-0.19,5.772-0.395,10.051-0.395c4.283,0,7.433,0.204,10.055,0.395
    c1.523,0.194,2.337-0.192,2.059-0.91C186.045,89.382,184.167,89.204,182.333,87.324"/>
  <path fill="#FFFFFF" d="M241.571,76.568c-0.616,0.198-0.849,1.974-2.726,3.911c-2.19,2.261-7.534,4.676-17.813,4.676
    c-4.117,0-7.128-1.44-7.128-6.132V25.825c0-5.113,0.825-6.326,1.853-7.389c1.854-1.962,3.724-2.108,3.933-2.738
    c0.271-0.734-0.528-1.072-2.05-0.939c-2.629,0.203-5.788,0.44-10.055,0.44c-4.279,0-7.427-0.237-10.058-0.44
    c-1.521-0.133-2.326,0.205-2.048,0.939c0.21,0.63,2.011,0.878,3.921,2.738c1.568,1.505,1.894,4.355,1.894,9.22l0,50.382
    c0,6.744-0.748,8.035-1.893,9.287c-1.854,1.879-3.711,2.057-3.921,2.722c-0.278,0.698,0.527,0.994,2.048,0.891
    c5.87-0.341,14.82-0.6,17.542-0.532c6.755,0.137,16.016,0.622,17.734,0.742c1.921,0.096,5.069,0.189,6.115-0.309
    c0.841-0.373,1.244-1.375,1.449-2.457c1.087-5.628,1.964-7.133,2.172-9.766C242.644,77.076,242.317,76.295,241.571,76.568"/>
  <path fill="#FFFFFF" d="M153.414,14.765c-2.614,0.202-4.358,0.491-6.807,0.491c-2.441,0-4.19-0.289-6.824-0.491
    c-1.509-0.098-2.323,0.204-2.05,0.974c0.227,0.594,2.294,0.593,4.083,2.433c1.119,1.176,1.737,2.698,1.731,8.896l-0.004,39.073
    c-0.001,14.07-10.791,19.509-20.368,19.509c-9.56,0-17.439-6.438-17.443-17.376l-0.012-42.405c0-5.149,0.828-6.333,1.864-7.388
    c1.845-1.958,3.717-2.146,3.931-2.74c0.271-0.77-0.529-1.072-2.051-0.974c-2.625,0.203-5.786,0.491-10.056,0.491
    c-4.283,0-7.425-0.289-10.053-0.491c-1.517-0.098-2.336,0.205-2.052,0.974c0.198,0.594,2.072,0.783,3.917,2.74
    c1.691,1.733,1.899,4.684,1.899,9.182l-0.009,38.273c-0.001,17.867,14.509,26.665,27.734,26.665
    c21.692,0,28.81-14.581,28.81-26.465l0.011-38.474c0-6.667,0.585-8.307,1.739-9.491c1.788-1.84,3.859-1.839,4.086-2.433
    C155.752,14.969,154.944,14.667,153.414,14.765"/>
  <path fill="#FFFFFF" d="M83.899,46.503c-2.612,0.188-5.767,0.49-10.062,0.49c-4.261,0-7.417-0.302-10.022-0.49
    c-1.542-0.1-2.345,0.189-2.087,0.957c0.234,0.596,2.099,0.81,3.941,2.753c1.567,1.573,1.896,4.393,1.896,9.092l0.006,19.13
    c0,2.551,0.545,3.317,3.229,5.177c3.022,2.062,5.896,4.406,7.565,6.855c0.332,0.459,0.8,0.777,1.218,0.677
    c0.432-0.137,0.593-1.688,0.593-1.688v-31.91c0-5.092,0.822-6.275,1.861-7.333c1.842-1.943,3.707-2.157,3.938-2.753
    C86.238,46.693,85.433,46.403,83.899,46.503"/>
  <path fill="#FFFFFF" d="M49.566,10.561c10.106,0,14.943,2.395,19.827,6.39c3.457,2.803,5.863,6.647,7.274,9.369
    c1.489,3.109,1.256,3.99,2.095,4.379c0.461,0.188,1.367-0.231,1.367-2.081c0.059-2.926,0.045-6.783,0.002-13.126
    c-0.002-2.044-1.311-2.778-7.751-5.511c-2.95-1.212-11.687-4.589-22.814-4.589c-26.174,0-44.729,19.515-44.729,43.488
    c0,21.471,14.733,38.919,29.889,43.381c0.514,0.156,1.168,0.34,1.513,0.421c0.778,0.104,0.928-0.582,0.928-2.434
    c0-0.673-0.146-0.945-1.082-1.768c-9.512-8.588-16.1-24.004-16.1-38.943C19.985,27.477,32.756,10.561,49.566,10.561"/>
  <path fill="#FFFFFF" d="M418.138,6.903c-2.025,0.14-4.278,0.34-7.2,0.395c-3.229-0.008-3.329-0.248-5.769-0.395
    c-1.475-0.15-2.321,0.189-2.047,0.938c0.19,0.63,2.029,1.705,2.357,2.773c0.451,1.426,0.581,2.698-0.789,6.602l-19.639,55.18
    l-22.578-54.128c-1.72-4.729-1.627-6.095-1.133-7.654c0.361-1.068,2.136-2.144,2.325-2.773c0.306-0.748-0.477-1.087-2.047-0.938
    c-2.633,0.188-5.77,0.439-10.042,0.44c-4.306-0.001-7.441-0.252-10.074-0.44c-1.469-0.15-2.321,0.189-2.048,0.938
    c0.192,0.63,2.126,0.776,3.911,2.724c1.166,1.176,3.021,3.223,5.761,8.699c0.487,0.952,0.864,1.915,1.271,2.846l1.077,2.514
    c0.193,0.545,0.385,1.083,0.679,1.604c0.007,0.068,0.012,0.127,0.018,0.164l28.388,67.749c0.682,1.587,1.937,2.557,2.731,0.318
    l26.959-74.656l0.001,0.011c2.527-6.61,4.582-8.114,5.634-9.158c1.895-1.887,4.048-2.183,4.311-2.813
    C420.459,7.092,419.616,6.753,418.138,6.903 M363.287,64.584c-0.673-0.308-1.572,0.369-2.347,1.638l-4.598,7.435l-23.091-55.169
    c-1.752-4.905-1.66-6.309-1.178-7.873c0.34-1.068,2.112-2.144,2.354-2.773c0.239-0.748-0.542-1.087-2.062-0.938
    c-2.632,0.188-5.804,0.439-10.058,0.44c-4.29-0.001-7.426-0.252-10.058-0.44c-1.504-0.15-2.338,0.189-2.048,0.938
    c0.207,0.63,2.09,0.776,3.912,2.724c1.111,1.173,2.885,3.174,5.608,8.468c0.494,1,0.931,2.045,1.38,3.049l1.072,2.585
    c0.242,0.54,0.432,1.042,0.637,1.56c0.042,0.068,0.047,0.127,0.088,0.163l28.278,67.491c0.403,0.956,0.986,1.743,1.566,1.743
    c0.466,0,1.065-0.566,1.366-1.253l8.96-26.005C363.663,66.617,364.063,64.949,363.287,64.584"/>
  <path fill="#FFFFFF" d="M274.551,14.219c-10.521,0-11.899,0.94-20.24,0.977c-3.28-0.086-5.857-0.29-8.06-0.436
    c-1.525-0.133-2.322,0.205-2.054,0.939c0.217,0.63,2.091,0.776,3.934,2.738c1.548,1.601,1.889,4.168,1.889,9.22
    c0,0,0,62.214,0,62.215c0,0.857,0.157,1.547,0.602,1.65c0.419,0.185,0.958-0.191,1.337-0.6c0.528-0.674,1.208-1.535,2.392-2.722
    c1.567-1.563,2.196-2.051,5.049-4.178c2.712-1.961,3.234-2.644,3.234-5.411V27.327c0-1.34,0.111-4.16,0.206-5.026
    c2.724-1.807,6.399-2.762,11.712-2.762c15.741,0,28.522,11.644,28.522,33.694c0,14.854-5.566,28.015-14.444,33.597l0.002,0.001
    c-0.982,0.682-1.229,1.175-1.229,1.951c0,1.778,0.052,2.361,0.825,2.142c0.181-0.085,0.398-0.096,0.587-0.182
    c16.853-5.185,28.955-19.147,28.955-38.106C317.77,27.825,299.37,14.219,274.551,14.219"/>
  <path fill="#FFFFFF" d="M639.686,72.563c-0.604,0.195-1.856,2.074-3.885,3.92c-2.474,2.236-7.941,4.403-16.519,4.403h-21.71
    c16.22-21.889,37.729-37.915,37.729-53.57c0-14.257-7.816-22.315-26.16-22.315c-5.721,0-14.938,2.587-23.157,7.329
    c-1.263,0.729-1.589,1.416-1.583,2.442l0.01,12.799c0,2.395,0.894,2.629,1.363,2.412c0.575-0.257,0.618-0.772,1.077-2.04
    c0.714-2.114,3.537-7.997,9.172-12.882c4.517-3.953,8.623-4.7,12.222-4.7c10.625,0,13.855,7.679,13.855,15.818
    c0,12.433-10.32,24.724-18.721,36.132c-11.426,15.616-18.716,25.039-21.489,28.697c-0.274,0.332-0.39,0.715-0.269,0.998
    c0.232,0.295,0.772,0.289,1.646,0.28c5.126-0.276,17.168-0.951,26.063-0.769c6.756,0.155,16.78,0.683,18.481,0.773
    c1.933,0.127,5.085,0.219,6.117-0.275c0.876-0.406,1.596-2.255,1.942-3.234c2.281-6.852,4.331-10.251,4.795-14.166
    C640.844,73.076,640.454,72.293,639.686,72.563"/>
  <path fill="#FFFFFF" d="M553.529,46.196c-12.177-8.768-15.255-12.494-15.255-17.581c0-3.688,2.979-8.33,10.416-9.262
    c11.195-1.362,16.184,5.947,17.302,7.876c2.109,3.574,1.548,7.046,2.502,7.827c0.371,0.324,1.301-0.161,1.317-2.033
    c0.07-3.23,0.053-11.535,0.053-13.174c0-2.004-1.662-2.598-5.368-3.812c-2.653-0.841-9.07-2.3-14.905-2.3
    c-10.849,0-20.953,4.522-22.907,15.099c-1.401,7.505,0.429,15.54,15.104,26.441c12.769,9.483,17.687,13.489,17.687,19.904
    c0,6.472-5.114,11.741-14.588,11.741c-1.101,0-2.233-0.082-3.32-0.176c-0.713-0.018-0.948,0.246-0.75,0.68
    c0.221,0.491,1.154,2.132,1.34,2.451c0.154,0.274,0.588,0.766,1.144,0.855c1.604,0.199,3.375,0.197,5.272,0.197
    c10.524,0,24.139-5.847,24.139-19.216C572.71,63.402,568.82,57.229,553.529,46.196"/>
  <path fill="#FFFFFF" d="M534.532,102.746L534.532,102.746l-0.006-0.013c-0.005-0.002-0.005-0.006-0.013-0.03
    c-0.011-0.019-0.015-0.029-0.015-0.052l-25.43-41.786c6.174-4.403,11.134-11.056,11.134-21.006
    c0-16.874-11.72-25.301-31.932-25.301c-9.306,0-10.045,0.547-15.904,0.7c-4.212-0.003-7.339-0.291-9.895-0.493
    c-1.538-0.097-2.317,0.205-2.069,0.974c0.247,0.595,2.078,0.783,3.936,2.709c1.586,1.647,1.874,4.62,1.874,9.21V78.04v-0.002
    c0,2.841-0.199,5.169-0.604,6.664c-0.635,2.321-2.628,2.541-4.171,0.972c-1.588-1.558-2.119-3.247-4.117-7.338l-26.677-63.77
    c-0.684-1.115-1.559-1.658-2.414,0.288l-22.869,63.15c-2.414,6.597-4.976,8.436-6.054,9.515c-1.867,1.871-3.585,1.55-3.899,2.446
    c-0.272,0.768,0.58,1.056,2.047,0.959c2.041-0.18,4.31-0.364,7.214-0.424c3.229,0.05,3.356,0.238,5.764,0.424
    c1.502,0.097,2.354-0.191,2.057-0.959c-0.199-0.596-2.045-1.754-2.333-2.843c-0.45-1.307-0.677-2.583,0.592-6.14l15.709-44.047
    l13.586,32.602l-14.366,0.222c-1.261,0.01-1.529,0.462-1.898,1.546c-0.637,1.773-0.729,2.327-0.535,2.633
    c0.32,0.408,1.677,0.403,2.36,0.403l16.477,0.006l2.634,6.328c1.284,4.008,1.188,5.285,0.732,6.659
    c-0.321,1.055-2.096,2.154-2.308,2.811c-0.284,0.708,0.505,1.087,2.065,0.986c2.57-0.232,5.772-0.487,10.007-0.488
    c3.131,0.001,6.383,0.189,8.522,0.183c3.994-0.086,6.746-0.279,8.815-0.279c4.273,0,7.415,0.2,10.041,0.389
    c1.513,0.196,2.335-0.191,2.059-0.908c-0.216-0.646-2.104-0.803-3.928-2.703c-1.034-1.085-1.722-2.333-1.86-7.345V26.178
    c0-1.147,0.05-2.774,0.303-5.064c2.258-0.765,4.797-1.021,8.626-1.021c9.532,0,18.063,5.962,18.063,19.767
    c0,12.887-5.188,21.171-16.711,25.105c-1.135,0.403-1.363,0.574-1.449,1.462c-0.1,1.369-0.059,2.146,1.703,1.97
    c1.951-0.226,4.594-0.725,7.525-1.673c2.688,2.937,8.042,8.674,15.756,17.079c6.357,7.025,19.45,19.746,19.45,19.746
    c1.284,1.212,2.209,1.668,2.68,1.356C535.202,104.592,535.202,103.826,534.532,102.746"/>
</svg>